<svg width="48" height="48" viewBox="0 0 24 24" fill="#25314C" xmlns="http://www.w3.org/2000/svg"><path d="M18 4h-1.5V3a.5.5 0 0 0-1 0v1h-7V3a.5.5 0 0 0-1 0v1H6C3.71 4 2.5 5.21 2.5 7.5V18c0 2.29 1.21 3.5 3.5 3.5h12c2.29 0 3.5-1.21 3.5-3.5V7.5C21.5 5.21 20.29 4 18 4ZM6 5h1.5v1a.5.5 0 0 0 1 0V5h7v1a.5.5 0 0 0 1 0V5H18c1.729 0 2.5.771 2.5 2.5v1h-17v-1C3.5 5.771 4.271 5 6 5Zm12 15.5H6c-1.729 0-2.5-.771-2.5-2.5V9.5h17V18c0 1.729-.771 2.5-2.5 2.5ZM8.75 13a.75.75 0 1 1-.761-.75H8a.748.748 0 0 1 .75.75Zm4 0a.75.75 0 1 1-.761-.75H12a.748.748 0 0 1 .75.75Zm4 0a.75.75 0 1 1-.761-.75H16a.748.748 0 0 1 .75.75Zm-8 4a.75.75 0 1 1-.761-.75H8a.748.748 0 0 1 .75.75Zm4 0a.75.75 0 1 1-.761-.75H12a.748.748 0 0 1 .75.75Zm4 0a.75.75 0 1 1-.761-.75H16a.748.748 0 0 1 .75.75Z" fill="#25314C"></path></svg>