<svg width="48" height="48" viewBox="0 0 24 24" fill="#25314C" xmlns="http://www.w3.org/2000/svg"><path d="M17.625 2.5H6.375C3.84 2.5 2.5 3.84 2.5 6.375v11.25c0 2.535 1.34 3.875 3.875 3.875h11.25c2.535 0 3.875-1.34 3.875-3.875V6.375c0-2.535-1.34-3.875-3.875-3.875ZM20.5 17.625c0 1.961-.913 2.875-2.875 2.875H6.375c-1.962 0-2.875-.914-2.875-2.875V6.375c0-1.961.913-2.875 2.875-2.875h11.25c1.962 0 2.875.914 2.875 2.875ZM17 9.5a.5.5 0 0 1-.5.5h-4a.5.5 0 0 1 0-1h4a.5.5 0 0 1 .5.5Zm0 5a.5.5 0 0 1-.5.5h-4a.5.5 0 0 1 0-1h4a.5.5 0 0 1 .5.5ZM9.854 8.48a.5.5 0 0 1 0 .707L8.521 10.52a.5.5 0 0 1-.708 0l-.667-.666a.5.5 0 0 1 .708-.708l.313.313.979-.979a.5.5 0 0 1 .708 0Zm0 5a.5.5 0 0 1 0 .707L8.521 15.52a.5.5 0 0 1-.708 0l-.667-.666a.5.5 0 0 1 .708-.708l.313.313.979-.979a.5.5 0 0 1 .708 0Z" fill="#25314C"></path></svg>