<svg width="48" height="48" viewBox="0 0 24 24" fill="#25314C" xmlns="http://www.w3.org/2000/svg"><path d="m20.354 8.646-6-6A.5.5 0 0 0 14 2.5H8C5.71 2.5 4.5 3.71 4.5 6v12c0 2.29 1.21 3.5 3.5 3.5h9c2.29 0 3.5-1.21 3.5-3.5V9a.5.5 0 0 0-.146-.354ZM14.5 4.207 18.793 8.5H17c-1.729 0-2.5-.771-2.5-2.5ZM17 20.5H8c-1.729 0-2.5-.771-2.5-2.5V6c0-1.729.771-2.5 2.5-2.5h5.5V6c0 2.29 1.21 3.5 3.5 3.5h2.5V18c0 1.729-.771 2.5-2.5 2.5Zm-3.646-6.854a.5.5 0 0 1-.708.708L11.5 13.207V17a.5.5 0 0 1-1 0v-3.793l-1.146 1.147a.5.5 0 0 1-.708-.708l2-2a.5.5 0 0 1 .708 0Z" fill="#25314C"></path></svg>